<mxfile host="app.diagrams.net" modified="2023-05-16T19:56:37.270Z" agent="Mozilla/5.0 (Windows NT 10.0; Win64; x64) AppleWebKit/537.36 (KHTML, like Gecko) Chrome/113.0.0.0 Safari/537.36" version="21.3.2" etag="kg9GfDJLf9qDeuvpNhUa" type="github">
  <diagram name="Page-1" id="Bq29xVs0bYbxWOrvcEpD">
    <mxGraphModel>
      <root>
        <mxCell id="0" />
        <mxCell id="1" parent="0" />
      </root>
    </mxGraphModel>
  </diagram>
</mxfile>
